<svg width="188" height="112" viewBox="0 0 188 112" fill="none" xmlns="http://www.w3.org/2000/svg">
<g filter="url(#filter0_d_30_416)">
<path fill-rule="evenodd" clip-rule="evenodd" d="M93.8494 103.04V101.6L90.8254 100.448C87.7534 99.2 86.2174 96.752 86.2174 93.104V70.04H64.6174V100.16H58.4254C51.5134 100.16 45.9454 98.816 41.7214 96.128C37.4974 93.344 34.4254 88.736 32.5054 82.304C31.4471 78.8773 30.6667 74.7893 30.1639 70.04H8.37634C9.45349 74.0787 11.0165 77.7827 13.0654 81.152C17.3854 88.256 23.4334 93.68 31.2094 97.424C38.8894 101.168 47.9614 103.04 58.4254 103.04H93.8494ZM8.00002 42.04H30.0619C30.5582 36.8805 31.3727 32.4939 32.5054 28.88C34.4254 22.352 37.4494 17.744 41.5774 15.056C45.7054 12.272 51.1294 10.88 57.8494 10.88H64.6174V42.04H86.2174V17.936C86.2174 14.096 87.7534 11.648 90.8254 10.592L93.8494 9.44V8H55.8334C45.6574 8 36.9214 9.92001 29.6254 13.76C22.2334 17.504 16.5694 22.928 12.6334 30.032C10.5514 33.6507 9.00693 37.6534 8.00002 42.04Z" fill="#26798E"/>
</g>
<g filter="url(#filter1_d_30_416)">
<path fill-rule="evenodd" clip-rule="evenodd" d="M94.0173 103.08V101.64L97.0413 100.488C100.113 99.24 101.649 96.792 101.649 93.144V70.08H123.249V100.2H129.441C136.353 100.2 141.921 98.856 146.145 96.168C150.369 93.384 153.441 88.776 155.361 82.344C156.42 78.9173 157.2 74.8293 157.703 70.08H179.49C178.413 74.1187 176.85 77.8227 174.801 81.192C170.481 88.296 164.433 93.72 156.657 97.464C148.977 101.208 139.905 103.08 129.441 103.08H94.0173ZM179.867 42.08H157.805C157.309 36.9205 156.494 32.5339 155.361 28.92C153.441 22.392 150.417 17.784 146.289 15.096C142.161 12.312 136.737 10.92 130.017 10.92H123.249V42.08H101.649V17.976C101.649 14.136 100.113 11.688 97.0413 10.632L94.0173 9.48001V8.04001H132.033C142.209 8.04001 150.945 9.96001 158.241 13.8C165.633 17.544 171.297 22.968 175.233 30.072C177.315 33.6907 178.86 37.6934 179.867 42.08Z" fill="#26798E"/>
</g>
<g filter="url(#filter2_d_30_416)">
<path d="M36.3008 60C35.9741 60 35.7128 59.916 35.5168 59.748C35.3301 59.58 35.2368 59.356 35.2368 59.076L35.2228 52.23V51.726C35.2228 51.0353 35.1621 50.5313 35.0408 50.214C35.6288 50.1393 36.6648 50.102 38.1488 50.102C39.5675 50.102 40.6548 50.5173 41.4108 51.348C42.1761 52.1693 42.5588 53.3827 42.5588 54.988C42.5588 58.3293 41.1215 60 38.2468 60H36.3008ZM38.1488 59.356C38.7088 59.356 39.1615 59.216 39.5068 58.936C39.8615 58.656 40.1228 58.208 40.2908 57.592C40.4588 56.9667 40.5428 56.1407 40.5428 55.114C40.5428 53.602 40.3468 52.496 39.9548 51.796C39.5721 51.096 38.9701 50.746 38.1488 50.746H37.0708V59.356H38.1488ZM45.7696 60.196C45.4616 60.196 45.2096 60.112 45.0136 59.944C44.8176 59.776 44.7196 59.5473 44.7196 59.258V52.23C44.7196 51.5207 44.6309 50.9327 44.4536 50.466C44.5563 50.3633 44.6963 50.27 44.8736 50.186C45.0603 50.102 45.2703 50.06 45.5036 50.06C45.8116 50.06 46.0636 50.144 46.2596 50.312C46.4556 50.48 46.5536 50.7087 46.5536 50.998V58.026C46.5536 58.7633 46.6423 59.3513 46.8196 59.79C46.7169 59.8927 46.5723 59.986 46.3856 60.07C46.2083 60.154 46.0029 60.196 45.7696 60.196ZM54.8105 58.362C54.9225 58.4273 55.0065 58.544 55.0625 58.712C55.1279 58.88 55.1605 59.0573 55.1605 59.244C55.1605 59.4587 55.1232 59.6407 55.0485 59.79C54.9739 59.93 54.8619 60 54.7125 60H50.2605C49.9525 60 49.7005 59.916 49.5045 59.748C49.3085 59.58 49.2105 59.3513 49.2105 59.062V52.468C49.2105 51.7587 49.1219 51.1707 48.9445 50.704C49.1685 50.5173 49.3925 50.396 49.6165 50.34C49.8499 50.2747 50.1812 50.242 50.6105 50.242H54.6705C54.7732 50.242 54.8479 50.2887 54.8945 50.382C54.9412 50.4753 54.9645 50.5967 54.9645 50.746C54.9645 50.9607 54.9179 51.18 54.8245 51.404C54.7312 51.628 54.6145 51.7727 54.4745 51.838C53.3732 51.39 52.2252 51.152 51.0305 51.124V54.442H54.0685C54.1152 54.61 54.1385 54.7687 54.1385 54.918C54.1385 55.0953 54.1152 55.268 54.0685 55.436H51.0445V59.118C51.6605 59.0993 52.3419 59.0153 53.0885 58.866C53.8352 58.7073 54.4092 58.5393 54.8105 58.362ZM60.8552 60.196C59.5392 60.196 58.5172 59.7573 57.7892 58.88C57.0705 57.9933 56.7112 56.738 56.7112 55.114C56.7112 53.4993 57.0845 52.2533 57.8312 51.376C58.5778 50.4893 59.6232 50.046 60.9672 50.046C61.4712 50.046 61.9565 50.1113 62.4232 50.242C62.8898 50.3727 63.2725 50.564 63.5712 50.816C63.8698 51.068 64.0192 51.3573 64.0192 51.684C64.0192 51.9827 63.8885 52.2393 63.6272 52.454C63.3658 52.6593 63.0018 52.7573 62.5352 52.748C62.3952 51.3667 61.8818 50.676 60.9952 50.676C60.2205 50.676 59.6465 51.0447 59.2732 51.782C58.9092 52.51 58.7272 53.6207 58.7272 55.114C58.7272 56.6073 58.9045 57.7227 59.2592 58.46C59.6232 59.188 60.1878 59.552 60.9532 59.552C61.5785 59.552 62.0125 59.286 62.2552 58.754C62.4978 58.222 62.6192 57.6013 62.6192 56.892C62.6192 56.4347 62.5585 56.0427 62.4372 55.716C62.3158 55.3893 62.0918 55.1513 61.7652 55.002C61.8398 54.8247 61.9798 54.6893 62.1852 54.596C62.3905 54.4933 62.6145 54.442 62.8572 54.442C63.3425 54.442 63.7345 54.6147 64.0332 54.96C64.3318 55.296 64.4812 55.7907 64.4812 56.444C64.4812 57.2467 64.3178 57.9327 63.9912 58.502C63.6738 59.062 63.2398 59.4867 62.6892 59.776C62.1385 60.056 61.5272 60.196 60.8552 60.196ZM70.086 60.196C68.7793 60.196 67.79 59.7713 67.118 58.922C66.4553 58.0727 66.124 56.8033 66.124 55.114C66.124 53.434 66.4553 52.1693 67.118 51.32C67.79 50.4707 68.7793 50.046 70.086 50.046C71.3926 50.046 72.3773 50.4707 73.04 51.32C73.712 52.1693 74.048 53.434 74.048 55.114C74.048 56.8033 73.712 58.0727 73.04 58.922C72.3773 59.7713 71.3926 60.196 70.086 60.196ZM70.086 59.552C70.758 59.552 71.248 59.202 71.556 58.502C71.864 57.7927 72.018 56.6633 72.018 55.114C72.018 53.5647 71.864 52.44 71.556 51.74C71.248 51.0307 70.758 50.676 70.086 50.676C69.414 50.676 68.9193 51.0307 68.602 51.74C68.294 52.4493 68.14 53.574 68.14 55.114C68.14 56.654 68.294 57.7787 68.602 58.488C68.9193 59.1973 69.414 59.552 70.086 59.552ZM80.473 60C80.1463 60 79.885 59.916 79.689 59.748C79.5023 59.58 79.409 59.356 79.409 59.076L79.395 52.23V51.726C79.395 51.0353 79.3343 50.5313 79.213 50.214C79.801 50.1393 80.837 50.102 82.321 50.102C83.7397 50.102 84.827 50.5173 85.583 51.348C86.3483 52.1693 86.731 53.3827 86.731 54.988C86.731 58.3293 85.2937 60 82.419 60H80.473ZM82.321 59.356C82.881 59.356 83.3337 59.216 83.679 58.936C84.0337 58.656 84.295 58.208 84.463 57.592C84.631 56.9667 84.715 56.1407 84.715 55.114C84.715 53.602 84.519 52.496 84.127 51.796C83.7443 51.096 83.1423 50.746 82.321 50.746H81.243V59.356H82.321ZM94.4918 58.362C94.6038 58.4273 94.6878 58.544 94.7438 58.712C94.8091 58.88 94.8418 59.0573 94.8418 59.244C94.8418 59.4587 94.8045 59.6407 94.7298 59.79C94.6551 59.93 94.5431 60 94.3938 60H89.9418C89.6338 60 89.3818 59.916 89.1858 59.748C88.9898 59.58 88.8918 59.3513 88.8918 59.062V52.468C88.8918 51.7587 88.8031 51.1707 88.6258 50.704C88.8498 50.5173 89.0738 50.396 89.2978 50.34C89.5311 50.2747 89.8625 50.242 90.2918 50.242H94.3518C94.4545 50.242 94.5291 50.2887 94.5758 50.382C94.6225 50.4753 94.6458 50.5967 94.6458 50.746C94.6458 50.9607 94.5991 51.18 94.5058 51.404C94.4125 51.628 94.2958 51.7727 94.1558 51.838C93.0545 51.39 91.9065 51.152 90.7118 51.124V54.442H93.7498C93.7965 54.61 93.8198 54.7687 93.8198 54.918C93.8198 55.0953 93.7965 55.268 93.7498 55.436H90.7258V59.118C91.3418 59.0993 92.0231 59.0153 92.7698 58.866C93.5165 58.7073 94.0905 58.5393 94.4918 58.362ZM102.93 50.046C103.294 50.046 103.556 50.1067 103.714 50.228C103.882 50.3493 103.966 50.5407 103.966 50.802C103.966 51.054 103.901 51.3667 103.77 51.74L101.082 59.944C100.662 60.112 100.252 60.196 99.8504 60.196C99.5237 60.196 99.2671 60.154 99.0804 60.07C98.8937 59.9953 98.7724 59.8693 98.7164 59.692L96.2104 51.32C96.0984 50.928 95.9491 50.634 95.7624 50.438C96.0051 50.1767 96.3691 50.046 96.8544 50.046C97.5171 50.046 97.9091 50.2793 98.0304 50.746L100.102 58.866L101.978 51.292C102.044 51.0493 102.076 50.844 102.076 50.676C102.076 50.4987 102.034 50.3493 101.95 50.228C102.24 50.1067 102.566 50.046 102.93 50.046ZM111.28 58.362C111.392 58.4273 111.476 58.544 111.532 58.712C111.598 58.88 111.63 59.0573 111.63 59.244C111.63 59.4587 111.593 59.6407 111.518 59.79C111.444 59.93 111.332 60 111.182 60H106.73C106.422 60 106.17 59.916 105.974 59.748C105.778 59.58 105.68 59.3513 105.68 59.062V52.468C105.68 51.7587 105.592 51.1707 105.414 50.704C105.638 50.5173 105.862 50.396 106.086 50.34C106.32 50.2747 106.651 50.242 107.08 50.242H111.14C111.243 50.242 111.318 50.2887 111.364 50.382C111.411 50.4753 111.434 50.5967 111.434 50.746C111.434 50.9607 111.388 51.18 111.294 51.404C111.201 51.628 111.084 51.7727 110.944 51.838C109.843 51.39 108.695 51.152 107.5 51.124V54.442H110.538C110.585 54.61 110.608 54.7687 110.608 54.918C110.608 55.0953 110.585 55.268 110.538 55.436H107.514V59.118C108.13 59.0993 108.812 59.0153 109.558 58.866C110.305 58.7073 110.879 58.5393 111.28 58.362ZM115.519 59.02C116.126 59.0107 116.756 58.9313 117.409 58.782C118.072 58.6327 118.594 58.4553 118.977 58.25C119.089 58.3247 119.173 58.4507 119.229 58.628C119.294 58.8053 119.327 58.992 119.327 59.188C119.327 59.412 119.285 59.6033 119.201 59.762C119.126 59.9207 119.014 60 118.865 60H114.735C114.427 60 114.175 59.916 113.979 59.748C113.783 59.58 113.685 59.3513 113.685 59.062V52.23C113.685 51.5207 113.596 50.9327 113.419 50.466C113.522 50.3633 113.662 50.27 113.839 50.186C114.026 50.102 114.236 50.06 114.469 50.06C114.777 50.06 115.024 50.144 115.211 50.312C115.407 50.48 115.505 50.7087 115.505 50.998L115.519 59.02ZM124.478 60.196C123.171 60.196 122.182 59.7713 121.51 58.922C120.847 58.0727 120.516 56.8033 120.516 55.114C120.516 53.434 120.847 52.1693 121.51 51.32C122.182 50.4707 123.171 50.046 124.478 50.046C125.784 50.046 126.769 50.4707 127.432 51.32C128.104 52.1693 128.44 53.434 128.44 55.114C128.44 56.8033 128.104 58.0727 127.432 58.922C126.769 59.7713 125.784 60.196 124.478 60.196ZM124.478 59.552C125.15 59.552 125.64 59.202 125.948 58.502C126.256 57.7927 126.41 56.6633 126.41 55.114C126.41 53.5647 126.256 52.44 125.948 51.74C125.64 51.0307 125.15 50.676 124.478 50.676C123.806 50.676 123.311 51.0307 122.994 51.74C122.686 52.4493 122.532 53.574 122.532 55.114C122.532 56.654 122.686 57.7787 122.994 58.488C123.311 59.1973 123.806 59.552 124.478 59.552ZM132.836 50.046C134.236 50.046 135.291 50.2793 136 50.746C136.719 51.2033 137.078 51.9313 137.078 52.93C137.078 53.9847 136.705 54.7967 135.958 55.366C135.221 55.926 134.157 56.206 132.766 56.206H132.43V58.124C132.43 58.824 132.519 59.3793 132.696 59.79C132.594 59.8927 132.449 59.986 132.262 60.07C132.085 60.154 131.88 60.196 131.646 60.196C131.338 60.196 131.086 60.112 130.89 59.944C130.694 59.776 130.596 59.5473 130.596 59.258V52.23C130.596 51.5207 130.508 50.9327 130.33 50.466C130.909 50.186 131.744 50.046 132.836 50.046ZM132.682 55.576C133.532 55.576 134.138 55.3567 134.502 54.918C134.876 54.4793 135.062 53.8633 135.062 53.07C135.062 51.4833 134.334 50.69 132.878 50.69C132.664 50.69 132.514 50.6947 132.43 50.704V55.576H132.682ZM144.625 58.362C144.737 58.4273 144.821 58.544 144.877 58.712C144.942 58.88 144.975 59.0573 144.975 59.244C144.975 59.4587 144.938 59.6407 144.863 59.79C144.788 59.93 144.676 60 144.527 60H140.075C139.767 60 139.515 59.916 139.319 59.748C139.123 59.58 139.025 59.3513 139.025 59.062V52.468C139.025 51.7587 138.936 51.1707 138.759 50.704C138.983 50.5173 139.207 50.396 139.431 50.34C139.664 50.2747 139.996 50.242 140.425 50.242H144.485C144.588 50.242 144.662 50.2887 144.709 50.382C144.756 50.4753 144.779 50.5967 144.779 50.746C144.779 50.9607 144.732 51.18 144.639 51.404C144.546 51.628 144.429 51.7727 144.289 51.838C143.188 51.39 142.04 51.152 140.845 51.124V54.442H143.883C143.93 54.61 143.953 54.7687 143.953 54.918C143.953 55.0953 143.93 55.268 143.883 55.436H140.859V59.118C141.475 59.0993 142.156 59.0153 142.903 58.866C143.65 58.7073 144.224 58.5393 144.625 58.362ZM154.31 58.67C154.384 58.8473 154.422 59.0153 154.422 59.174C154.422 59.5007 154.3 59.7527 154.058 59.93C153.815 60.1073 153.568 60.196 153.316 60.196C152.952 60.196 152.653 60.1213 152.42 59.972C152.196 59.8133 152.009 59.6033 151.86 59.342C151.72 59.0713 151.547 58.6793 151.342 58.166L150.908 57.018C150.786 56.71 150.674 56.472 150.572 56.304C150.469 56.1267 150.324 55.982 150.138 55.87C149.951 55.7487 149.704 55.688 149.396 55.688L148.864 55.674V58.124C148.864 58.824 148.952 59.3793 149.13 59.79C149.027 59.8927 148.882 59.986 148.696 60.07C148.518 60.154 148.313 60.196 148.08 60.196C147.772 60.196 147.52 60.112 147.324 59.944C147.128 59.776 147.03 59.5473 147.03 59.258V52.23C147.03 51.5207 146.941 50.9327 146.764 50.466C147.342 50.186 148.206 50.046 149.354 50.046C150.716 50.046 151.738 50.2467 152.42 50.648C153.11 51.0493 153.456 51.698 153.456 52.594C153.456 53.2753 153.26 53.854 152.868 54.33C152.476 54.7967 151.934 55.1187 151.244 55.296C151.561 55.3893 151.822 55.534 152.028 55.73C152.242 55.926 152.434 56.178 152.602 56.486L153.19 57.844C153.33 58.1707 153.46 58.4087 153.582 58.558C153.703 58.7073 153.834 58.7867 153.974 58.796C154.104 58.796 154.216 58.754 154.31 58.67ZM148.864 55.016C149.125 55.0347 149.33 55.0393 149.48 55.03C150.114 55.0113 150.6 54.7873 150.936 54.358C151.272 53.9287 151.44 53.3827 151.44 52.72C151.44 52.0853 151.286 51.586 150.978 51.222C150.67 50.858 150.175 50.676 149.494 50.676C149.186 50.676 148.976 50.6853 148.864 50.704V55.016Z" fill="#FFC172"/>
</g>
<defs>
<filter id="filter0_d_30_416" x="0" y="0" width="101.849" height="111.04" filterUnits="userSpaceOnUse" color-interpolation-filters="sRGB">
<feFlood flood-opacity="0" result="BackgroundImageFix"/>
<feColorMatrix in="SourceAlpha" type="matrix" values="0 0 0 0 0 0 0 0 0 0 0 0 0 0 0 0 0 0 127 0" result="hardAlpha"/>
<feOffset/>
<feGaussianBlur stdDeviation="4"/>
<feComposite in2="hardAlpha" operator="out"/>
<feColorMatrix type="matrix" values="0 0 0 0 0.14902 0 0 0 0 0.47451 0 0 0 0 0.556863 0 0 0 1 0"/>
<feBlend mode="normal" in2="BackgroundImageFix" result="effect1_dropShadow_30_416"/>
<feBlend mode="normal" in="SourceGraphic" in2="effect1_dropShadow_30_416" result="shape"/>
</filter>
<filter id="filter1_d_30_416" x="86.0173" y="0.0400085" width="101.849" height="111.04" filterUnits="userSpaceOnUse" color-interpolation-filters="sRGB">
<feFlood flood-opacity="0" result="BackgroundImageFix"/>
<feColorMatrix in="SourceAlpha" type="matrix" values="0 0 0 0 0 0 0 0 0 0 0 0 0 0 0 0 0 0 127 0" result="hardAlpha"/>
<feOffset/>
<feGaussianBlur stdDeviation="4"/>
<feComposite in2="hardAlpha" operator="out"/>
<feColorMatrix type="matrix" values="0 0 0 0 0.14902 0 0 0 0 0.47451 0 0 0 0 0.556863 0 0 0 1 0"/>
<feBlend mode="normal" in2="BackgroundImageFix" result="effect1_dropShadow_30_416"/>
<feBlend mode="normal" in="SourceGraphic" in2="effect1_dropShadow_30_416" result="shape"/>
</filter>
<filter id="filter2_d_30_416" x="31.0408" y="46.046" width="127.381" height="18.15" filterUnits="userSpaceOnUse" color-interpolation-filters="sRGB">
<feFlood flood-opacity="0" result="BackgroundImageFix"/>
<feColorMatrix in="SourceAlpha" type="matrix" values="0 0 0 0 0 0 0 0 0 0 0 0 0 0 0 0 0 0 127 0" result="hardAlpha"/>
<feOffset/>
<feGaussianBlur stdDeviation="2"/>
<feComposite in2="hardAlpha" operator="out"/>
<feColorMatrix type="matrix" values="0 0 0 0 1 0 0 0 0 0.756863 0 0 0 0 0.447059 0 0 0 1 0"/>
<feBlend mode="normal" in2="BackgroundImageFix" result="effect1_dropShadow_30_416"/>
<feBlend mode="normal" in="SourceGraphic" in2="effect1_dropShadow_30_416" result="shape"/>
</filter>
</defs>
</svg>
